<?xml version="1.0" encoding="UTF-8" standalone="no"?>
<!-- Created with Inkscape (http://www.inkscape.org/) -->

<svg
   width="213.18517mm"
   height="48.130379mm"
   viewBox="0 0 213.18517 48.130379"
   version="1.1"
   id="svg1"
   inkscape:version="1.3.2 (091e20e, 2023-11-25, custom)"
   sodipodi:docname="CrafesignLogo.svg"
   inkscape:export-filename="crf4.svg"
   inkscape:export-xdpi="96"
   inkscape:export-ydpi="96"
   xmlns:inkscape="http://www.inkscape.org/namespaces/inkscape"
   xmlns:sodipodi="http://sodipodi.sourceforge.net/DTD/sodipodi-0.dtd"
   xmlns="http://www.w3.org/2000/svg"
   xmlns:svg="http://www.w3.org/2000/svg">
  <sodipodi:namedview
     id="namedview1"
     pagecolor="#ffffff"
     bordercolor="#999999"
     borderopacity="1"
     inkscape:showpageshadow="2"
     inkscape:pageopacity="0"
     inkscape:pagecheckerboard="0"
     inkscape:deskcolor="#d1d1d1"
     inkscape:document-units="mm"
     showgrid="true"
     inkscape:zoom="0.70710678"
     inkscape:cx="671.04433"
     inkscape:cy="528.20876"
     inkscape:window-width="1920"
     inkscape:window-height="1009"
     inkscape:window-x="-8"
     inkscape:window-y="-8"
     inkscape:window-maximized="1"
     inkscape:current-layer="layer1"
     inkscape:export-bgcolor="#ffffff00">
    <inkscape:grid
       id="grid2"
       units="mm"
       originx="-39.615894"
       originy="-79.423813"
       spacingx="0.8"
       spacingy="0.8"
       empcolor="#0099e5"
       empopacity="0.30196078"
       color="#0099e5"
       opacity="0.14901961"
       empspacing="4"
       dotted="false"
       gridanglex="30"
       gridanglez="30"
       visible="true" />
  </sodipodi:namedview>
  <defs
     id="defs1" />
  <path
     d="m 20.990289,22.824737 v -2.786946 c -1.058334,2.328335 -3.245558,4.445003 -8.219728,4.445003 -5.0447254,0 -7.2319491,-5.221115 -7.2319491,-11.288897 0,-6.0677814 2.9280575,-10.4775066 7.1613941,-10.4775066 4.550836,0 5.60917,1.8697235 8.255005,6.3500043 V 6.0325037 C 19.438066,2.1519456 15.592785,0.28222208 12.876395,0.28222208 5.1505561,0.28222208 -2.9325485e-6,5.3975033 -2.9325485e-6,14.287509 c 0,7.126116 4.6919476325485,12.52362 11.9944529325485,12.52362 3.386669,0 7.090838,-1.058334 8.995839,-3.986392 z m 29.633385,4.97417 -10.089451,-13.864176 c 5.150559,-1.375834 6.491116,-4.0569469 6.491116,-6.8438932 0,-3.3161134 -2.716391,-6.2794487 -7.302505,-6.2794487 -3.739447,0 -8.396117,0.0352778 -8.396117,0.0352778 H 28.575048 V 26.176128 h 4.938893 V 14.216954 l 0.670278,-0.03528 c 3.880558,3.880558 10.336396,13.581953 16.439455,13.617231 z M 34.501719,2.6458348 c 2.187224,0 3.84528,-0.035278 5.150559,0.6702782 1.375834,0.6702782 2.116668,2.3636127 2.116668,4.3038918 0,5.0447252 -4.233336,5.0447252 -8.255005,5.0447252 V 2.6458348 Z M 64.911197,16.792233 h -7.196671 l 3.774725,-9.207506 z m 3.457225,9.383895 h 5.573893 L 63.923419,0.52916669 H 62.053695 L 51.22341,26.176128 h 2.645835 l 3.033891,-7.37306 h 8.748895 z M 93.838963,14.675565 v -2.151946 h -7.86695 V 2.8575016 H 98.283966 V 0.8466669 H 81.033121 V 26.176128 h 4.938892 V 14.675565 Z m 28.010557,9.31334 h -13.44084 v -9.666118 h 7.86695 v -2.151946 h -7.86695 V 2.8575016 h 12.94695 V 0.8466669 H 103.46979 V 26.176128 h 18.37973 z M 134.72589,-3.3569336e-7 c -4.58611,0 -8.67834,2.78694633569336 -8.67834,7.97278313569336 0,3.7747252 3.06917,6.4558372 8.04334,7.5141722 l 3.91584,1.023056 c 2.08139,0.458611 3.10445,2.39889 3.10445,4.056947 0,2.151946 -2.64584,3.280835 -4.90362,3.280835 -2.29306,0 -4.93889,-1.975556 -5.64445,-4.374447 l -5.08,1.411112 c 1.27,4.127503 5.18584,5.503337 10.6539,5.503337 6.0325,0 9.45445,-3.84528 9.41917,-7.902227 -0.0353,-2.928058 -2.96334,-5.46806 -6.38528,-6.314727 l -3.35139,-0.776111 c -3.17501,-0.81139 -5.29168,-3.2102804 -5.29168,-5.3975041 0,-2.5047239 2.04612,-3.5983357 4.55084,-3.5983357 1.905,0 3.95112,1.1288896 4.55084,4.1275027 l 5.22111,-0.7761116 C 143.54534,1.1641671 140.08812,-3.3569336e-7 134.72589,-3.3569336e-7 Z M 151.09477,26.176128 h 4.9389 V 0.8466669 h -4.9389 z m 32.7378,-4.727225 0.0706,-8.713617 -4.02167,3.175002 -0.0706,4.797781 c -0.24694,1.164168 -1.27,2.57528 -4.445,2.716391 -5.53862,0.282222 -7.30251,-4.162781 -7.30251,-10.230563 0,-6.0677814 2.64584,-9.701395 8.00806,-9.7719506 2.89278,-0.035278 6.70279,2.7516685 7.83168,5.5738927 V 4.1627802 c -1.97556,-2.9633353 -5.08001,-3.88055812 -7.7964,-3.88055812 -8.14917,0 -13.58195,5.11528122 -13.58195,14.00528692 0,7.126116 4.51556,12.52362 12.24139,12.52362 3.59834,0 8.14918,-2.222502 9.0664,-5.362226 z m 29.35113,5.256392 V 0.8466669 h -2.36362 V 16.580566 L 195.36841,0.8466669 h -0.28223 V 0.8113891 h -2.36361 V 26.176128 h 2.36361 V 8.1844496 Z"
     id="text1"
     style="font-size:35.2778px;font-family:'Bagnard Sans';-inkscape-font-specification:'Bagnard Sans, Normal';stroke-width:0.264583"
     aria-label="CRAFESIGN" />
  <path
     id="rect1"
     style="fill:#ffffff;stroke-width:0.343288"
     d="m 192.67818,0.80023652 h 2.72629 v 0.0467722 h -2.72629 z" />
  <path
     style="font-size:15.4552px;font-family:Calibri;-inkscape-font-specification:'Calibri, Normal';stroke-width:0.264583"
     d="m 104.71524,47.194614 q -0.0302,0.0981 -0.083,0.15093 -0.0453,0.06037 -0.12074,0.09056 -0.0755,0.03019 -0.18866,0.04528 -0.10566,0.01509 -0.26413,0.01509 -0.18866,0 -0.31695,-0.03019 -0.12075,-0.02264 -0.18867,-0.07547 -0.0679,-0.04528 -0.083,-0.120744 -0.0151,-0.06792 0.0302,-0.166022 l 4.56562,-12.519618 q 0.0302,-0.0981 0.0755,-0.15093 0.0528,-0.06037 0.12074,-0.09056 0.0755,-0.03773 0.18866,-0.04528 0.1132,-0.01509 0.27168,-0.01509 0.18866,0 0.3094,0.03018 0.12075,0.02264 0.18866,0.06792 0.0679,0.04528 0.083,0.120744 0.0151,0.07546 -0.0226,0.173569 z m 6.92768,-10.051917 q -0.15093,0 -0.23395,-0.03019 -0.083,-0.03773 -0.12074,-0.120744 -0.0377,-0.09056 -0.0453,-0.226394 0,-0.135837 0,-0.339592 v -1.547029 q 0,-0.211302 0,-0.354685 0.008,-0.143383 0.0453,-0.226394 0.0453,-0.08301 0.12829,-0.120744 0.083,-0.03773 0.24149,-0.03773 0.15847,0 0.24149,0.03773 0.083,0.03019 0.12074,0.120744 0.0377,0.08301 0.0377,0.218848 0.008,0.135836 0.008,0.339591 v 1.54703 q 0,0.211301 -0.008,0.354684 -0.008,0.143384 -0.0453,0.226395 -0.0377,0.08301 -0.12829,0.120744 -0.083,0.03773 -0.24148,0.03773 z m 8.98031,8.037006 q 0,0.06037 -0.0302,0.105651 -0.0302,0.04528 -0.10566,0.07547 -0.0679,0.03019 -0.1962,0.04528 -0.12829,0.01509 -0.3245,0.01509 -0.20376,0 -0.33959,-0.01509 -0.12829,-0.0075 -0.21885,-0.03019 -0.0906,-0.03019 -0.15093,-0.07547 -0.0528,-0.05283 -0.0981,-0.120744 l -2.86766,-3.758149 v 3.765696 q 0,0.06037 -0.0302,0.10565 -0.0302,0.03773 -0.0981,0.06792 -0.0679,0.03019 -0.18866,0.04528 -0.12075,0.01509 -0.30941,0.01509 -0.18111,0 -0.30186,-0.01509 -0.12074,-0.01509 -0.19621,-0.04528 -0.0679,-0.03019 -0.0981,-0.06792 -0.0226,-0.04528 -0.0226,-0.10565 V 35.105146 q 0,-0.06037 0.0226,-0.10565 0.0302,-0.04528 0.0981,-0.07547 0.0755,-0.03019 0.19621,-0.04528 0.12075,-0.01509 0.30186,-0.01509 0.18866,0 0.30941,0.01509 0.12074,0.01509 0.18866,0.04528 0.0679,0.03019 0.0981,0.07547 0.0302,0.04528 0.0302,0.10565 v 6.142839 l 2.5658,-2.822385 q 0.0604,-0.07547 0.12829,-0.120744 0.0679,-0.05283 0.15848,-0.08301 0.0981,-0.03773 0.2264,-0.04528 0.12829,-0.01509 0.3094,-0.01509 0.18866,0 0.31695,0.01509 0.12829,0.0075 0.20376,0.03773 0.083,0.02264 0.1132,0.06792 0.0377,0.03773 0.0377,0.105651 0,0.09056 -0.0528,0.181116 -0.0453,0.09056 -0.15847,0.211301 l -2.46016,2.460154 2.76202,3.58458 q 0.0981,0.128291 0.13583,0.211302 0.0453,0.07546 0.0453,0.143383 z m 5.41838,-6.339047 q 0,0.166023 -0.008,0.27922 -0.008,0.113197 -0.0302,0.181116 -0.0226,0.06037 -0.0604,0.0981 -0.0302,0.03019 -0.0905,0.03019 -0.0604,0 -0.15093,-0.03019 -0.083,-0.03773 -0.19621,-0.06792 -0.10565,-0.03773 -0.24149,-0.06792 -0.13584,-0.03019 -0.29431,-0.03019 -0.18866,0 -0.36978,0.07547 -0.18112,0.07547 -0.38487,0.249034 -0.19621,0.173569 -0.41506,0.460336 -0.21885,0.286766 -0.48297,0.701823 v 4.467519 q 0,0.06037 -0.0302,0.10565 -0.0302,0.03773 -0.0981,0.06792 -0.0679,0.03019 -0.18866,0.04528 -0.12075,0.01509 -0.30941,0.01509 -0.18112,0 -0.30186,-0.01509 -0.12074,-0.01509 -0.19621,-0.04528 -0.0679,-0.03019 -0.0981,-0.06792 -0.0226,-0.04528 -0.0226,-0.10565 v -6.791836 q 0,-0.06037 0.0226,-0.09811 0.0226,-0.04528 0.0905,-0.07547 0.0679,-0.03773 0.17357,-0.04528 0.10565,-0.01509 0.27922,-0.01509 0.16603,0 0.27168,0.01509 0.11319,0.0075 0.17357,0.04528 0.0604,0.03019 0.083,0.07547 0.0302,0.03773 0.0302,0.09811 v 0.988589 q 0.27922,-0.40751 0.52071,-0.664091 0.24904,-0.25658 0.46788,-0.399963 0.21885,-0.15093 0.43015,-0.203755 0.21885,-0.06037 0.4377,-0.06037 0.0981,0 0.21885,0.01509 0.12829,0.0075 0.26412,0.03773 0.13584,0.03019 0.24149,0.06792 0.1132,0.03773 0.15848,0.07546 0.0453,0.03773 0.0604,0.07547 0.0151,0.03019 0.0226,0.08301 0.0151,0.05282 0.0151,0.158476 0.008,0.0981 0.008,0.271673 z m 6.98804,6.346594 q 0,0.120743 -0.12074,0.181115 -0.1132,0.05283 -0.4226,0.05283 -0.31696,0 -0.44525,-0.05283 -0.12074,-0.06037 -0.12074,-0.181115 v -0.898032 q -0.54335,0.588626 -1.11688,0.913125 -0.57353,0.316952 -1.26026,0.316952 -0.7471,0 -1.27536,-0.286766 -0.52825,-0.294313 -0.8603,-0.784835 -0.3245,-0.498068 -0.47543,-1.162158 -0.15093,-0.664091 -0.15093,-1.411193 0,-0.875392 0.18867,-1.577215 0.18866,-0.70937 0.55844,-1.207438 0.36977,-0.498068 0.91312,-0.762195 0.55089,-0.271673 1.26781,-0.271673 0.59617,0 1.16216,0.264127 0.56599,0.25658 1.04896,0.762195 V 38.40296 q 0,-0.05282 0.0151,-0.0981 0.0151,-0.04528 0.0679,-0.07547 0.0528,-0.03773 0.15848,-0.05282 0.10565,-0.01509 0.28676,-0.01509 0.18112,0 0.29432,0.01509 0.12074,0.01509 0.18111,0.05282 0.0604,0.03019 0.083,0.07547 0.0226,0.04528 0.0226,0.0981 z m -1.25271,-4.822204 q -0.50562,-0.633905 -0.9735,-0.935764 -0.46788,-0.301859 -0.98859,-0.301859 -0.47543,0 -0.80747,0.226394 -0.33205,0.226395 -0.54335,0.596172 -0.20375,0.369778 -0.30186,0.83766 -0.0906,0.467882 -0.0906,0.950857 0,0.513161 0.0755,1.003683 0.083,0.490521 0.27922,0.875392 0.19621,0.377324 0.52071,0.611265 0.32449,0.226395 0.81502,0.226395 0.24148,0 0.47542,-0.06792 0.23395,-0.06792 0.47543,-0.226394 0.24904,-0.158476 0.50562,-0.40751 0.26412,-0.256581 0.55844,-0.626359 z m 5.54666,-2.173388 -0.90558,1.54703 h -0.18866 l -0.90558,-1.54703 z m -0.008,7.184254 h -1.99228 l 0.90558,-1.54703 h 0.18112 z m 3.88644,-6.142839 v 5.954177 q 0,0.06037 -0.0302,0.10565 -0.0302,0.03773 -0.10565,0.06792 -0.0679,0.03019 -0.18866,0.04528 -0.12075,0.01509 -0.30186,0.01509 -0.18112,0 -0.30186,-0.01509 -0.12075,-0.01509 -0.19621,-0.04528 -0.0679,-0.03019 -0.0981,-0.06792 -0.0302,-0.04528 -0.0302,-0.10565 v -5.954177 h -0.9584 q -0.12075,0 -0.18112,-0.120743 -0.0604,-0.120744 -0.0604,-0.392418 0,-0.143383 0.0151,-0.241487 0.0151,-0.0981 0.0453,-0.158476 0.0302,-0.06792 0.0755,-0.09056 0.0453,-0.03019 0.10565,-0.03019 h 0.9584 v -0.701823 q 0,-0.70937 0.12829,-1.214984 0.13584,-0.513161 0.39996,-0.83766 0.27168,-0.324499 0.67919,-0.475428 0.41505,-0.158477 0.97349,-0.158477 0.27922,0 0.54335,0.06037 0.26413,0.05283 0.37732,0.105651 0.1132,0.04528 0.15848,0.09056 0.0453,0.04528 0.0679,0.120744 0.0302,0.06792 0.0377,0.173569 0.0151,0.0981 0.0151,0.241487 0,0.143384 -0.0151,0.233941 -0.008,0.08301 -0.0302,0.135837 -0.0226,0.05283 -0.0528,0.07547 -0.0302,0.01509 -0.0679,0.01509 -0.0604,0 -0.13583,-0.03019 -0.0755,-0.03773 -0.18867,-0.07547 -0.11319,-0.04528 -0.27167,-0.07546 -0.15093,-0.03773 -0.35468,-0.03773 -0.27922,0 -0.47543,0.09056 -0.18867,0.09056 -0.30941,0.286766 -0.12074,0.188662 -0.18111,0.498068 -0.0528,0.301859 -0.0528,0.739556 v 0.739555 h 3.06387 v -1.614948 q 0,-0.05282 0.0302,-0.0981 0.0302,-0.04528 0.0981,-0.07547 0.0679,-0.03773 0.18866,-0.05282 0.12075,-0.01509 0.30941,-0.01509 0.18112,0 0.30186,0.01509 0.12074,0.01509 0.18866,0.05282 0.0679,0.03019 0.0981,0.07547 0.0302,0.04528 0.0302,0.0981 v 1.614948 h 1.73569 q 0.0604,0 0.10565,0.03019 0.0528,0.02264 0.083,0.09056 0.0302,0.06037 0.0453,0.158476 0.0226,0.0981 0.0226,0.241487 0,0.271674 -0.0679,0.392418 -0.0679,0.120743 -0.18112,0.120743 h -1.74324 v 3.788336 q 0,0.701823 0.20376,1.064054 0.20375,0.354685 0.7471,0.354685 0.16602,0 0.30186,-0.03019 0.14338,-0.03773 0.24903,-0.07547 0.10565,-0.03773 0.18112,-0.06792 0.083,-0.03773 0.13584,-0.03773 0.0453,0 0.0755,0.02264 0.0302,0.01509 0.0453,0.06792 0.0226,0.05282 0.0377,0.143383 0.0151,0.09056 0.0151,0.226395 0,0.218848 -0.0377,0.347138 -0.0302,0.12829 -0.0906,0.188662 -0.0604,0.06037 -0.17357,0.113197 -0.11319,0.05283 -0.27167,0.08301 -0.15093,0.03773 -0.33204,0.06037 -0.17357,0.02264 -0.3396,0.02264 -0.5358,0 -0.91312,-0.135837 -0.37732,-0.143383 -0.61881,-0.422603 -0.24149,-0.286766 -0.35469,-0.716916 -0.10565,-0.437696 -0.10565,-1.026322 v -3.969451 z m 10.92731,5.10897 q 0.0604,0 0.0981,0.03019 0.0453,0.02264 0.0755,0.09056 0.0377,0.06037 0.0528,0.158476 0.0226,0.09811 0.0226,0.241488 0,0.271673 -0.0679,0.392417 -0.0679,0.120744 -0.18111,0.120744 h -3.6525 q -0.12075,0 -0.18112,-0.120744 -0.0604,-0.120744 -0.0604,-0.392417 0,-0.143383 0.0151,-0.241488 0.0151,-0.0981 0.0453,-0.158476 0.0302,-0.06792 0.0755,-0.09056 0.0453,-0.03019 0.10565,-0.03019 h 1.20743 v -5.10897 h -1.20743 q -0.12075,0 -0.18112,-0.120743 -0.0604,-0.120744 -0.0604,-0.392418 0,-0.143383 0.0151,-0.241487 0.0151,-0.0981 0.0453,-0.158476 0.0302,-0.06792 0.0755,-0.09056 0.0453,-0.03019 0.10565,-0.03019 h 3.6525 q 0.0604,0 0.0981,0.03019 0.0453,0.02264 0.0755,0.09056 0.0377,0.06037 0.0528,0.158476 0.0226,0.0981 0.0226,0.241487 0,0.271674 -0.0679,0.392418 -0.0679,0.120743 -0.18111,0.120743 h -1.1999 v 5.10897 z m 7.5012,0.958404 q 0,0.845206 -0.12829,1.350821 -0.12074,0.505614 -0.38487,0.830113 -0.25658,0.332045 -0.649,0.490521 -0.39242,0.158477 -0.92822,0.158477 -0.36977,0 -0.62635,-0.06037 -0.25658,-0.06037 -0.34714,-0.135837 -0.0906,-0.06792 -0.1132,-0.181116 -0.0226,-0.113197 -0.0226,-0.301859 0,-0.143383 0.0151,-0.233941 0.0151,-0.09056 0.0377,-0.15093 0.0226,-0.05282 0.0604,-0.08301 0.0377,-0.02264 0.083,-0.02264 0.0679,0 0.13584,0.01509 0.0679,0.02264 0.15093,0.04528 0.0906,0.03019 0.20375,0.04528 0.1132,0.02264 0.27922,0.02264 0.21885,0 0.39996,-0.06792 0.18867,-0.06037 0.31696,-0.249034 0.12829,-0.188662 0.19621,-0.528254 0.0755,-0.339591 0.0755,-1.041414 v -3.992091 q 0,-0.581079 -0.0906,-0.935764 -0.0906,-0.354685 -0.26412,-0.611265 -0.17357,-0.256581 -0.45279,-0.392417 -0.27168,-0.135837 -0.63391,-0.135837 -0.46788,0 -0.93576,0.332045 -0.46788,0.332046 -0.98105,0.973497 v 4.746739 q 0,0.06037 -0.0302,0.10565 -0.0302,0.03773 -0.0981,0.06792 -0.0679,0.03019 -0.18866,0.04528 -0.12074,0.01509 -0.3094,0.01509 -0.18112,0 -0.30186,-0.01509 -0.12075,-0.01509 -0.19621,-0.04528 -0.0679,-0.03019 -0.0981,-0.06792 -0.0226,-0.04528 -0.0226,-0.10565 v -6.791836 q 0,-0.06037 0.0226,-0.09811 0.0226,-0.04528 0.0906,-0.07547 0.0679,-0.03773 0.17357,-0.04528 0.10565,-0.01509 0.27922,-0.01509 0.16602,0 0.27167,0.01509 0.1132,0.0075 0.17357,0.04528 0.0604,0.03019 0.083,0.07547 0.0302,0.03773 0.0302,0.09811 v 0.898031 q 0.57353,-0.641451 1.13952,-0.935764 0.57353,-0.301859 1.15461,-0.301859 0.67919,0 1.13952,0.233941 0.46788,0.226394 0.75465,0.611265 0.28677,0.384871 0.40751,0.905578 0.12829,0.513161 0.12829,1.237624 z M 171.2144,45.18725 q 0,0.06037 -0.0302,0.10565 -0.0226,0.04528 -0.0906,0.07546 -0.0604,0.02264 -0.16602,0.03773 -0.10565,0.01509 -0.25658,0.01509 -0.15848,0 -0.26413,-0.01509 -0.10565,-0.01509 -0.17357,-0.03773 -0.0679,-0.03019 -0.0981,-0.07546 -0.0302,-0.04528 -0.0302,-0.10565 v -0.898032 q -0.5358,0.581079 -1.11688,0.905578 -0.57353,0.324499 -1.26026,0.324499 -0.7471,0 -1.27536,-0.286766 -0.52825,-0.294313 -0.8603,-0.784835 -0.3245,-0.498068 -0.47542,-1.162158 -0.15093,-0.671638 -0.15093,-1.411193 0,-0.875392 0.18866,-1.577215 0.18866,-0.70937 0.55844,-1.207438 0.36978,-0.498068 0.91312,-0.762195 0.5509,-0.271673 1.26781,-0.271673 0.59617,0 1.0867,0.264127 0.49806,0.25658 0.98104,0.762195 v -3.946812 q 0,-0.05282 0.0226,-0.0981 0.0302,-0.05282 0.10565,-0.07547 0.0755,-0.03019 0.18866,-0.04528 0.12074,-0.02264 0.30186,-0.02264 0.18866,0 0.30941,0.02264 0.12074,0.01509 0.18866,0.04528 0.0679,0.02264 0.0981,0.07547 0.0377,0.04528 0.0377,0.0981 z m -1.25271,-4.776925 q -0.50562,-0.626358 -0.98104,-0.950857 -0.46789,-0.332045 -0.98105,-0.332045 -0.47543,0 -0.80747,0.226394 -0.33205,0.226395 -0.54335,0.596172 -0.20375,0.369778 -0.30186,0.83766 -0.0906,0.467882 -0.0906,0.950857 0,0.513161 0.0755,1.003683 0.083,0.490521 0.27922,0.875392 0.19621,0.377324 0.52071,0.611265 0.3245,0.226395 0.81502,0.226395 0.24903,0 0.47543,-0.06792 0.23394,-0.06792 0.47542,-0.226394 0.24149,-0.158476 0.50562,-0.40751 0.26413,-0.256581 0.55844,-0.626359 z m 6.5428,3.931718 q 0.0604,0 0.0981,0.03019 0.0453,0.02264 0.0755,0.09056 0.0377,0.06037 0.0528,0.158476 0.0226,0.09811 0.0226,0.241488 0,0.271673 -0.0679,0.392417 -0.0679,0.120744 -0.18112,0.120744 h -3.6525 q -0.12074,0 -0.18111,-0.120744 -0.0604,-0.120744 -0.0604,-0.392417 0,-0.143383 0.0151,-0.241488 0.0151,-0.0981 0.0453,-0.158476 0.0302,-0.06792 0.0755,-0.09056 0.0453,-0.03019 0.10565,-0.03019 h 1.20744 v -5.10897 h -1.20744 q -0.12074,0 -0.18111,-0.120743 -0.0604,-0.120744 -0.0604,-0.392418 0,-0.143383 0.0151,-0.241487 0.0151,-0.0981 0.0453,-0.158476 0.0302,-0.06792 0.0755,-0.09056 0.0453,-0.03019 0.10565,-0.03019 h 3.6525 q 0.0604,0 0.0981,0.03019 0.0453,0.02264 0.0755,0.09056 0.0377,0.06037 0.0528,0.158476 0.0226,0.0981 0.0226,0.241487 0,0.271674 -0.0679,0.392418 -0.0679,0.120743 -0.18112,0.120743 h -1.19989 v 5.10897 z m 2.72428,-7.199346 q -0.15093,0 -0.23394,-0.03019 -0.083,-0.03773 -0.12075,-0.120744 -0.0377,-0.09056 -0.0453,-0.226394 0,-0.135837 0,-0.339592 v -1.547029 q 0,-0.211302 0,-0.354685 0.008,-0.143383 0.0453,-0.226394 0.0453,-0.08301 0.12829,-0.120744 0.083,-0.03773 0.24149,-0.03773 0.15848,0 0.24149,0.03773 0.083,0.03019 0.12074,0.120744 0.0377,0.08301 0.0377,0.218848 0.008,0.135836 0.008,0.339591 v 1.54703 q 0,0.211301 -0.008,0.354684 -0.008,0.143384 -0.0453,0.226395 -0.0377,0.08301 -0.12829,0.120744 -0.083,0.03773 -0.24148,0.03773 z m 7.73514,7.704961 q 0,0.143383 -0.0226,0.249034 -0.0226,0.0981 -0.0528,0.166022 -0.0302,0.06037 -0.083,0.09056 -0.0528,0.02264 -0.1132,0.02264 h -4.18075 q -0.15848,0 -0.26413,-0.105651 -0.0981,-0.105651 -0.0981,-0.354685 v -0.25658 q 0,-0.105651 0.0151,-0.188662 0.0151,-0.08301 0.0453,-0.166023 0.0302,-0.08301 0.083,-0.173569 0.0528,-0.0981 0.12829,-0.218848 l 2.99596,-4.663728 h -2.9054 q -0.12074,0 -0.19621,-0.120743 -0.0679,-0.128291 -0.0679,-0.407511 0,-0.135836 0.0151,-0.233941 0.0151,-0.10565 0.0453,-0.166022 0.0377,-0.06792 0.083,-0.09056 0.0528,-0.03019 0.12074,-0.03019 h 3.89399 q 0.083,0 0.14338,0.02264 0.0679,0.02264 0.1132,0.07547 0.0453,0.05283 0.0679,0.135837 0.0302,0.08301 0.0302,0.211302 v 0.241487 q 0,0.105651 -0.0151,0.196209 -0.0151,0.09056 -0.0453,0.181115 -0.0302,0.08301 -0.083,0.181116 -0.0528,0.0981 -0.12829,0.218848 l -2.98086,4.663727 h 3.18461 q 0.0604,0 0.10565,0.03019 0.0528,0.02264 0.083,0.08301 0.0377,0.06037 0.0604,0.166022 0.0226,0.09811 0.0226,0.241488 z m 0.8754,0.354685 q 0,-0.03019 0,-0.06037 0.008,-0.03773 0.0151,-0.07547 0.008,-0.03773 0.0151,-0.08301 0.0151,-0.04528 0.0302,-0.0981 l 2.31677,-6.452244 q 0.0302,-0.08301 0.0755,-0.135837 0.0528,-0.05282 0.15093,-0.08301 0.0981,-0.03019 0.24903,-0.03773 0.15093,-0.01509 0.37733,-0.01509 0.22639,0 0.37732,0.01509 0.15093,0.01509 0.24149,0.04528 0.0981,0.03019 0.15093,0.08301 0.0528,0.05282 0.083,0.12829 l 2.30922,6.452244 q 0.0302,0.09056 0.0453,0.158476 0.0226,0.06792 0.0226,0.105651 0.008,0.03019 0.008,0.05283 0,0.06037 -0.0302,0.10565 -0.0302,0.04528 -0.10565,0.06792 -0.0679,0.03019 -0.18866,0.03773 -0.1132,0.0075 -0.28677,0.0075 -0.21884,0 -0.35468,-0.01509 -0.12829,-0.0075 -0.20376,-0.03773 -0.0679,-0.03019 -0.10565,-0.07546 -0.0302,-0.04528 -0.0604,-0.113197 l -1.91681,-5.599491 -0.0302,-0.09056 -0.0226,0.09056 -1.89417,5.599491 q -0.0151,0.06792 -0.0528,0.113197 -0.0377,0.04528 -0.1132,0.07546 -0.0679,0.03019 -0.19621,0.03773 -0.12074,0.01509 -0.3245,0.01509 -0.17357,0 -0.28677,-0.0075 -0.11319,-0.0075 -0.18111,-0.03773 -0.0604,-0.03019 -0.0906,-0.06792 -0.0226,-0.04528 -0.0226,-0.10565 z m 10.86694,-0.8603 q 0.0604,0 0.0981,0.03019 0.0453,0.02264 0.0755,0.09056 0.0377,0.06037 0.0528,0.158476 0.0226,0.09811 0.0226,0.241488 0,0.271673 -0.0679,0.392417 -0.0679,0.120744 -0.18112,0.120744 h -3.6525 q -0.12074,0 -0.18111,-0.120744 -0.0604,-0.120744 -0.0604,-0.392417 0,-0.143383 0.0151,-0.241488 0.0151,-0.0981 0.0453,-0.158476 0.0302,-0.06792 0.0755,-0.09056 0.0453,-0.03019 0.10565,-0.03019 h 1.20744 v -5.10897 h -1.20744 q -0.12074,0 -0.18111,-0.120743 -0.0604,-0.120744 -0.0604,-0.392418 0,-0.143383 0.0151,-0.241487 0.0151,-0.0981 0.0453,-0.158476 0.0302,-0.06792 0.0755,-0.09056 0.0453,-0.03019 0.10565,-0.03019 h 3.6525 q 0.0604,0 0.0981,0.03019 0.0453,0.02264 0.0755,0.09056 0.0377,0.06037 0.0528,0.158476 0.0226,0.0981 0.0226,0.241487 0,0.271674 -0.0679,0.392418 -0.0679,0.120743 -0.18112,0.120743 h -1.19989 v 5.10897 z m 7.5012,0.845207 q 0,0.06037 -0.0302,0.10565 -0.0302,0.03773 -0.0981,0.06792 -0.0679,0.03019 -0.18866,0.04528 -0.12075,0.01509 -0.30186,0.01509 -0.18866,0 -0.30941,-0.01509 -0.12074,-0.01509 -0.18866,-0.04528 -0.0679,-0.03019 -0.0981,-0.06792 -0.0302,-0.04528 -0.0302,-0.10565 v -3.976998 q 0,-0.581079 -0.0906,-0.935764 -0.0906,-0.354685 -0.26412,-0.611265 -0.17357,-0.256581 -0.45279,-0.392417 -0.27168,-0.135837 -0.63391,-0.135837 -0.46788,0 -0.93576,0.332045 -0.46788,0.332046 -0.98104,0.973497 v 4.746739 q 0,0.06037 -0.0302,0.10565 -0.0302,0.03773 -0.0981,0.06792 -0.0679,0.03019 -0.18866,0.04528 -0.12074,0.01509 -0.3094,0.01509 -0.18112,0 -0.30186,-0.01509 -0.12075,-0.01509 -0.19621,-0.04528 -0.0679,-0.03019 -0.0981,-0.06792 -0.0226,-0.04528 -0.0226,-0.10565 v -6.791836 q 0,-0.06037 0.0226,-0.09811 0.0226,-0.04528 0.0906,-0.07547 0.0679,-0.03773 0.17357,-0.04528 0.10565,-0.01509 0.27922,-0.01509 0.16602,0 0.27167,0.01509 0.1132,0.0075 0.17357,0.04528 0.0604,0.03019 0.083,0.07547 0.0302,0.03773 0.0302,0.09811 v 0.898031 q 0.57353,-0.641451 1.13952,-0.935764 0.57353,-0.301859 1.15461,-0.301859 0.67919,0 1.13952,0.233941 0.46788,0.226394 0.75465,0.611265 0.28677,0.384871 0.40751,0.905578 0.12829,0.513161 0.12829,1.237624 z m 2.38469,2.007364 q -0.0302,0.0981 -0.083,0.15093 -0.0453,0.06037 -0.12074,0.09056 -0.0755,0.03019 -0.18867,0.04528 -0.10565,0.01509 -0.26412,0.01509 -0.18867,0 -0.31696,-0.03019 -0.12074,-0.02264 -0.18866,-0.07547 -0.0679,-0.04528 -0.083,-0.120744 -0.0151,-0.06792 0.0302,-0.166022 l 4.56562,-12.519618 q 0.0302,-0.0981 0.0755,-0.15093 0.0528,-0.06037 0.12075,-0.09056 0.0755,-0.03773 0.18866,-0.04528 0.1132,-0.01509 0.27167,-0.01509 0.18867,0 0.30941,0.03018 0.12074,0.02264 0.18866,0.06792 0.0679,0.04528 0.083,0.120744 0.0151,0.07546 -0.0226,0.173569 z"
     id="text3"
     aria-label="/ˈkrɑːftɪŋ dɪˈzʌɪn/" />
</svg>
